<svg height="466pt" viewBox="0 -60 466.206 466" width="466pt" xmlns="http://www.w3.org/2000/svg"><path d="m233.105469 153.746094c-91.582031 0-188.917969 23.480468-188.917969 66.996094 0 11.785156 7.585938 28.96875 43.765625 43.914062 23.886719 9.867188 57.152344 17.136719 93.152344 20.644531v28.023438c.003906 2.941406 1.621093 5.644531 4.207031 7.039062 2.589844 1.394531 5.734375 1.261719 8.195312-.351562l52.6875-34.550781c2.253907-1.480469 3.613282-3.996094 3.613282-6.691407 0-2.695312-1.359375-5.210937-3.613282-6.6875l-52.6875-34.558593c-2.460937-1.609376-5.605468-1.742188-8.195312-.347657-2.585938 1.394531-4.203125 4.097657-4.207031 7.039063v25.007812c-76-7.523437-120.925781-30.160156-120.925781-48.480468 0-11.664063 17.75-24.417969 47.476562-34.109376 33.390625-10.890624 77.945312-16.886718 125.449219-16.886718 47.503906 0 92.054687 6 125.445312 16.886718 29.726563 9.691407 47.472657 22.445313 47.472657 34.109376 0 19.300781-49.261719 43.070312-131.699219 49.433593-4.289063.324219-7.554688 3.984375-7.390625 8.28125.164062 4.296875 3.695312 7.695313 7.996094 7.695313.207031 0 .417968-.007813.625-.023438 39.757812-3.070312 75.929687-10.570312 101.851562-21.125 36.878906-15.011718 44.617188-32.355468 44.617188-44.261718 0-43.519532-97.335938-66.996094-188.917969-66.996094zm-36 105.277344 30.101562 19.742187-30.101562 19.746094zm0 0"/><path d="m430.71875 24.515625c-20.410156-10.101563-49.359375-18.507813-83.71875-24.300781-2.324219-.390625-4.703125.261718-6.5 1.78125-1.796875 1.523437-2.835938 3.761718-2.832031 6.117187l.140625 106.96875c-31.71875 4.945313-67.367188 7.570313-104.441406 7.570313-38.289063 0-75.054688-2.800782-107.542969-8.0625l.144531-105.941406c.003906-2.367188-1.039062-4.613282-2.847656-6.132813-1.808594-1.523437-4.199219-2.167969-6.53125-1.761719-33.515625 5.867188-61.707032 14.246094-81.53125 24.242188-22.914063 11.554687-34.535156 25.019531-34.535156 40.007812 0 .640625.027343.921875.070312 1.921875h-.070312l-.523438 205.179688c0 47.839843 120.054688 73.648437 233.015625 73.648437 60.777344 0 117.976563-6.945312 161.058594-19.554687 46.730469-13.675781 71.433593-32.234375 71.433593-53.925781l.699219-205.347657h-.058593c.03125-1 .058593-1.234375.058593-1.777343.003907-15.203126-11.9375-28.976563-35.488281-40.632813zm19.5 40.476563c0 15.628906-31.046875 30.261718-60.101562 38.746093-11.175782 3.261719-23.339844 6.132813-36.308594 8.589844l-.125-94.671875c66.585937 12.507812 96.527344 32.511719 96.527344 47.335938zm-340.261719-46.742188-.128906 93.476562c-11.808594-2.316406-22.929687-4.984374-33.207031-7.988281-29.054688-8.484375-60.101563-23.117187-60.101563-38.746093.003907-14.488282 28.992188-34.175782 93.4375-46.742188zm279.625 292.589844c-41.667969 12.191406-97.269531 18.90625-156.566406 18.90625-59.332031 0-115.03125-6.714844-156.835937-18.910156-29.089844-8.484376-60.179688-23.121094-60.179688-38.722657l.457031-178.871093c12.015625 9.84375 30.707031 18.5625 55.679688 25.855468 43.175781 12.605469 100.433593 19.550782 161.230469 19.550782 60.796874 0 118.054687-6.945313 161.230468-19.550782 24.863282-7.257812 43.5-15.933594 55.523438-25.722656l-.613282 178.71875c0 15.636719-30.953124 30.269531-59.925781 38.746094zm0 0"/></svg>